<svg xmlns="http://www.w3.org/2000/svg" width="1490" height="930" fill="none"><path stroke="url(#a)" stroke-width="1.745" d="M-241.636-13H-292v53.947M-241.636-13v53.947m0-53.947h50.363m-50.363 53.947H-292m50.364 0v53.948m0-53.948h50.363m-100.727 0v53.948m50.364 0H-292m50.364 0v53.947m0-53.947h50.363m-100.727 0v53.947m50.364 0H-292m50.364 0v53.947m0-53.947h50.363m-100.727 0v53.947m50.364 0H-292m50.364 0v53.948m0-53.948h50.363m-100.727 0v53.948m50.364 0H-292m50.364 0v53.947m0-53.947h50.363m-100.727 0v53.947m50.364 0H-292m50.364 0v53.948m0-53.948h50.363m-100.727 0v53.948m50.364 0H-292m50.364 0v53.947m0-53.947h50.363m-100.727 0v53.947m50.364 0H-292m50.364 0v53.947m0-53.947h50.363m-100.727 0v53.947m50.364 0H-292m50.364 0v53.948m0-53.948h50.363m-100.727 0v53.948m50.364 0H-292m50.364 0v53.947m0-53.947h50.363m-100.727 0v53.947m50.364 0H-292m50.364 0v53.947m0-53.947h50.363m-100.727 0v53.947m50.364 0H-292m50.364 0v53.948m0-53.948h50.363m-100.727 0v53.948m50.364 0H-292m50.364 0v53.947m0-53.947h50.363m-100.727 0v53.947m50.364 0H-292m50.364 0v53.947m0-53.947h50.363m-100.727 0v53.947m50.364 0H-292m50.364 0v53.948m0-53.948h50.363m-100.727 0v53.948m50.364 0H-292m50.364 0v53.947m0-53.947h50.363m-100.727 0v53.947m50.364 0H-292m50.364 0v53.948m0-53.948h50.363m-100.727 0v53.948m50.364 0H-292m50.364 0V1012m0-53.947h50.363m-100.727 0V1012h50.364m0 0h50.363m0-1025v53.947m0-53.947h50.364m-50.364 53.947v53.948m0-53.948h50.364m-50.364 53.948v53.947m0-53.947h50.364m-50.364 53.947v53.947m0-53.947h50.364m-50.364 53.947v53.948m0-53.948h50.364m-50.364 53.948v53.947m0-53.947h50.364m-50.364 53.947v53.948m0-53.948h50.364m-50.364 53.948v53.947m0-53.947h50.364m-50.364 53.947v53.947m0-53.947h50.364m-50.364 53.947v53.948m0-53.948h50.364m-50.364 53.948v53.947m0-53.947h50.364m-50.364 53.947v53.947m0-53.947h50.364m-50.364 53.947v53.948m0-53.948h50.364m-50.364 53.948v53.947m0-53.947h50.364m-50.364 53.947v53.947m0-53.947h50.364m-50.364 53.947v53.948m0-53.948h50.364m-50.364 53.948v53.947m0-53.947h50.364m-50.364 53.947v53.948m0-53.948h50.364m-50.364 53.948V1012m0-53.947h50.364M-191.273 1012h50.364m0-1025v53.947m0-53.947h50.363m-50.363 53.947v53.948m0-53.948h50.363m-50.363 53.948v53.947m0-53.947h50.363m-50.363 53.947v53.947m0-53.947h50.363m-50.363 53.947v53.948m0-53.948h50.363m-50.363 53.948v53.947m0-53.947h50.363m-50.363 53.947v53.948m0-53.948h50.363m-50.363 53.948v53.947m0-53.947h50.363m-50.363 53.947v53.947m0-53.947h50.363m-50.363 53.947v53.948m0-53.948h50.363m-50.363 53.948v53.947m0-53.947h50.363m-50.363 53.947v53.947m0-53.947h50.363m-50.363 53.947v53.948m0-53.948h50.363m-50.363 53.948v53.947m0-53.947h50.363m-50.363 53.947v53.947m0-53.947h50.363m-50.363 53.947v53.948m0-53.948h50.363m-50.363 53.948v53.947m0-53.947h50.363m-50.363 53.947v53.948m0-53.948h50.363m-50.363 53.948V1012m0-53.947h50.363M-140.908 1012h50.363m0-1025v53.947m0-53.947h50.364m-50.363 53.947v53.948m0-53.948h50.363m-50.363 53.948v53.947m0-53.947h50.363m-50.363 53.947v53.947m0-53.947h50.363m-50.363 53.947v53.948m0-53.948h50.363m-50.363 53.948v53.947m0-53.947h50.363m-50.363 53.947v53.948m0-53.948h50.363m-50.363 53.948v53.947m0-53.947h50.363m-50.363 53.947v53.947m0-53.947h50.363m-50.363 53.947v53.948m0-53.948h50.363m-50.363 53.948v53.947m0-53.947h50.363m-50.363 53.947v53.947m0-53.947h50.363m-50.363 53.947v53.948m0-53.948h50.363m-50.363 53.948v53.947m0-53.947h50.363m-50.363 53.947v53.947m0-53.947h50.363m-50.363 53.947v53.948m0-53.948h50.363m-50.363 53.948v53.947m0-53.947h50.363m-50.363 53.947v53.948m0-53.948h50.363m-50.363 53.948V1012m0-53.947h50.363M-90.545 1012h50.363m0-1025v53.947m0-53.947h50.364m-50.364 53.947v53.948m0-53.948h50.364m-50.364 53.948v53.947m0-53.947h50.364m-50.364 53.947v53.947m0-53.947h50.364m-50.364 53.947v53.948m0-53.948h50.364m-50.364 53.948v53.947m0-53.947h50.364m-50.364 53.947v53.948m0-53.948h50.364m-50.364 53.948v53.947m0-53.947h50.364m-50.364 53.947v53.947m0-53.947h50.364m-50.364 53.947v53.948m0-53.948h50.364m-50.364 53.948v53.947m0-53.947h50.364m-50.364 53.947v53.947m0-53.947h50.364m-50.364 53.947v53.948m0-53.948h50.364m-50.364 53.948v53.947m0-53.947h50.364m-50.364 53.947v53.947m0-53.947h50.364m-50.364 53.947v53.948m0-53.948h50.364m-50.364 53.948v53.947m0-53.947h50.364m-50.364 53.947v53.948m0-53.948h50.364m-50.364 53.948V1012m0-53.947h50.364M-40.182 1012h50.364m0-1025v53.947m0-53.947h50.363M10.182 40.947v53.948m0-53.948h50.363M10.182 94.895v53.947m0-53.947h50.363m-50.363 53.947v53.947m0-53.947h50.363m-50.363 53.947v53.948m0-53.948h50.363m-50.363 53.948v53.947m0-53.947h50.363m-50.363 53.947v53.948m0-53.948h50.363m-50.363 53.948v53.947m0-53.947h50.363m-50.363 53.947v53.947m0-53.947h50.363m-50.363 53.947v53.948m0-53.948h50.363m-50.363 53.948v53.947m0-53.947h50.363m-50.363 53.947v53.947m0-53.947h50.363m-50.363 53.947v53.948m0-53.948h50.363m-50.363 53.948v53.947m0-53.947h50.363m-50.363 53.947v53.947m0-53.947h50.363M10.182 796.21v53.948m0-53.948h50.363m-50.363 53.948v53.947m0-53.947h50.363m-50.363 53.947v53.948m0-53.948h50.363m-50.363 53.948V1012m0-53.947h50.363M10.182 1012h50.363m0-1025v53.947m0-53.947h50.364M60.545 40.947v53.948m0-53.948h50.364M60.545 94.895v53.947m0-53.947h50.364m-50.364 53.947v53.947m0-53.947h50.364m-50.364 53.947v53.948m0-53.948h50.364m-50.364 53.948v53.947m0-53.947h50.364m-50.364 53.947v53.948m0-53.948h50.364m-50.364 53.948v53.947m0-53.947h50.364m-50.364 53.947v53.947m0-53.947h50.364m-50.364 53.947v53.948m0-53.948h50.364m-50.364 53.948v53.947m0-53.947h50.364m-50.364 53.947v53.947m0-53.947h50.364m-50.364 53.947v53.948m0-53.948h50.364m-50.364 53.948v53.947m0-53.947h50.364m-50.364 53.947v53.947m0-53.947h50.364M60.545 796.21v53.948m0-53.948h50.364m-50.364 53.948v53.947m0-53.947h50.364m-50.364 53.947v53.948m0-53.948h50.364m-50.364 53.948V1012m0-53.947h50.364M60.545 1012h50.364m0-1025v53.947m0-53.947h50.364m-50.364 53.947v53.948m0-53.948h50.364m-50.364 53.948v53.947m0-53.947h50.364m-50.364 53.947v53.947m0-53.947h50.364m-50.364 53.947v53.948m0-53.948h50.364m-50.364 53.948v53.947m0-53.947h50.364m-50.364 53.947v53.948m0-53.948h50.364m-50.364 53.948v53.947m0-53.947h50.364m-50.364 53.947v53.947m0-53.947h50.364m-50.364 53.947v53.948m0-53.948h50.364m-50.364 53.948v53.947m0-53.947h50.364m-50.364 53.947v53.947m0-53.947h50.364m-50.364 53.947v53.948m0-53.948h50.364m-50.364 53.948v53.947m0-53.947h50.364m-50.364 53.947v53.947m0-53.947h50.364m-50.364 53.947v53.948m0-53.948h50.364m-50.364 53.948v53.947m0-53.947h50.364m-50.364 53.947v53.948m0-53.948h50.364m-50.364 53.948V1012m0-53.947h50.364M110.909 1012h50.364m0-1025v53.947m0-53.947h50.363m-50.363 53.947v53.948m0-53.948h50.363m-50.363 53.948v53.947m0-53.947h50.363m-50.363 53.947v53.947m0-53.947h50.363m-50.363 53.947v53.948m0-53.948h50.363m-50.363 53.948v53.947m0-53.947h50.363m-50.363 53.947v53.948m0-53.948h50.363m-50.363 53.948v53.947m0-53.947h50.363m-50.363 53.947v53.947m0-53.947h50.363m-50.363 53.947v53.948m0-53.948h50.363m-50.363 53.948v53.947m0-53.947h50.363m-50.363 53.947v53.947m0-53.947h50.363m-50.363 53.947v53.948m0-53.948h50.363m-50.363 53.948v53.947m0-53.947h50.363m-50.363 53.947v53.947m0-53.947h50.363m-50.363 53.947v53.948m0-53.948h50.363m-50.363 53.948v53.947m0-53.947h50.363m-50.363 53.947v53.948m0-53.948h50.363m-50.363 53.948V1012m0-53.947h50.363M161.273 1012h50.363m0-1025v53.947m0-53.947H262m-50.364 53.947v53.948m0-53.948H262m-50.364 53.948v53.947m0-53.947H262m-50.364 53.947v53.947m0-53.947H262m-50.364 53.947v53.948m0-53.948H262m-50.364 53.948v53.947m0-53.947H262m-50.364 53.947v53.948m0-53.948H262m-50.364 53.948v53.947m0-53.947H262m-50.364 53.947v53.947m0-53.947H262m-50.364 53.947v53.948m0-53.948H262m-50.364 53.948v53.947m0-53.947H262m-50.364 53.947v53.947m0-53.947H262m-50.364 53.947v53.948m0-53.948H262m-50.364 53.948v53.947m0-53.947H262m-50.364 53.947v53.947m0-53.947H262m-50.364 53.947v53.948m0-53.948H262m-50.364 53.948v53.947m0-53.947H262m-50.364 53.947v53.948m0-53.948H262m-50.364 53.948V1012m0-53.947H262M211.636 1012H262m0-1025v53.947M262-13h50.364M262 40.947v53.948m0-53.948h50.364M262 94.895v53.947m0-53.947h50.364M262 148.842v53.947m0-53.947h50.364M262 202.789v53.948m0-53.948h50.364M262 256.737v53.947m0-53.947h50.364M262 310.684v53.948m0-53.948h50.364M262 364.632v53.947m0-53.947h50.364M262 418.579v53.947m0-53.947h50.364M262 472.526v53.948m0-53.948h50.364M262 526.474v53.947m0-53.947h50.364M262 580.421v53.947m0-53.947h50.364M262 634.368v53.948m0-53.948h50.364M262 688.316v53.947m0-53.947h50.364M262 742.263v53.947m0-53.947h50.364M262 796.21v53.948m0-53.948h50.364M262 850.158v53.947m0-53.947h50.364M262 904.105v53.948m0-53.948h50.364M262 958.053V1012m0-53.947h50.364M262 1012h50.364m0-1025v53.947m0-53.947h50.363m-50.363 53.947v53.948m0-53.948h50.363m-50.363 53.948v53.947m0-53.947h50.363m-50.363 53.947v53.947m0-53.947h50.363m-50.363 53.947v53.948m0-53.948h50.363m-50.363 53.948v53.947m0-53.947h50.363m-50.363 53.947v53.948m0-53.948h50.363m-50.363 53.948v53.947m0-53.947h50.363m-50.363 53.947v53.947m0-53.947h50.363m-50.363 53.947v53.948m0-53.948h50.363m-50.363 53.948v53.947m0-53.947h50.363m-50.363 53.947v53.947m0-53.947h50.363m-50.363 53.947v53.948m0-53.948h50.363m-50.363 53.948v53.947m0-53.947h50.363m-50.363 53.947v53.947m0-53.947h50.363m-50.363 53.947v53.948m0-53.948h50.363m-50.363 53.948v53.947m0-53.947h50.363m-50.363 53.947v53.948m0-53.948h50.363m-50.363 53.948V1012m0-53.947h50.363M312.364 1012h50.363m0-1025v53.947m0-53.947h50.364m-50.364 53.947v53.948m0-53.948h50.364m-50.364 53.948v53.947m0-53.947h50.364m-50.364 53.947v53.947m0-53.947h50.364m-50.364 53.947v53.948m0-53.948h50.364m-50.364 53.948v53.947m0-53.947h50.364m-50.364 53.947v53.948m0-53.948h50.364m-50.364 53.948v53.947m0-53.947h50.364m-50.364 53.947v53.947m0-53.947h50.364m-50.364 53.947v53.948m0-53.948h50.364m-50.364 53.948v53.947m0-53.947h50.364m-50.364 53.947v53.947m0-53.947h50.364m-50.364 53.947v53.948m0-53.948h50.364m-50.364 53.948v53.947m0-53.947h50.364m-50.364 53.947v53.947m0-53.947h50.364m-50.364 53.947v53.948m0-53.948h50.364m-50.364 53.948v53.947m0-53.947h50.364m-50.364 53.947v53.948m0-53.948h50.364m-50.364 53.948V1012m0-53.947h50.364M362.727 1012h50.364m0-1025v53.947m0-53.947h50.363m-50.363 53.947v53.948m0-53.948h50.363m-50.363 53.948v53.947m0-53.947h50.363m-50.363 53.947v53.947m0-53.947h50.363m-50.363 53.947v53.948m0-53.948h50.363m-50.363 53.948v53.947m0-53.947h50.363m-50.363 53.947v53.948m0-53.948h50.363m-50.363 53.948v53.947m0-53.947h50.363m-50.363 53.947v53.947m0-53.947h50.363m-50.363 53.947v53.948m0-53.948h50.363m-50.363 53.948v53.947m0-53.947h50.363m-50.363 53.947v53.947m0-53.947h50.363m-50.363 53.947v53.948m0-53.948h50.363m-50.363 53.948v53.947m0-53.947h50.363m-50.363 53.947v53.947m0-53.947h50.363m-50.363 53.947v53.948m0-53.948h50.363m-50.363 53.948v53.947m0-53.947h50.363m-50.363 53.947v53.948m0-53.948h50.363m-50.363 53.948V1012m0-53.947h50.363M413.091 1012h50.363m0-1025v53.947m0-53.947h50.364m-50.364 53.947v53.948m0-53.948h50.364m-50.364 53.948v53.947m0-53.947h50.364m-50.364 53.947v53.947m0-53.947h50.364m-50.364 53.947v53.948m0-53.948h50.364m-50.364 53.948v53.947m0-53.947h50.364m-50.364 53.947v53.948m0-53.948h50.364m-50.364 53.948v53.947m0-53.947h50.364m-50.364 53.947v53.947m0-53.947h50.364m-50.364 53.947v53.948m0-53.948h50.364m-50.364 53.948v53.947m0-53.947h50.364m-50.364 53.947v53.947m0-53.947h50.364m-50.364 53.947v53.948m0-53.948h50.364m-50.364 53.948v53.947m0-53.947h50.364m-50.364 53.947v53.947m0-53.947h50.364m-50.364 53.947v53.948m0-53.948h50.364m-50.364 53.948v53.947m0-53.947h50.364m-50.364 53.947v53.948m0-53.948h50.364m-50.364 53.948V1012m0-53.947h50.364M463.454 1012h50.364m0-1025v53.947m0-53.947h50.364m-50.364 53.947v53.948m0-53.948h50.364m-50.364 53.948v53.947m0-53.947h50.364m-50.364 53.947v53.947m0-53.947h50.364m-50.364 53.947v53.948m0-53.948h50.364m-50.364 53.948v53.947m0-53.947h50.364m-50.364 53.947v53.948m0-53.948h50.364m-50.364 53.948v53.947m0-53.947h50.364m-50.364 53.947v53.947m0-53.947h50.364m-50.364 53.947v53.948m0-53.948h50.364m-50.364 53.948v53.947m0-53.947h50.364m-50.364 53.947v53.947m0-53.947h50.364m-50.364 53.947v53.948m0-53.948h50.364m-50.364 53.948v53.947m0-53.947h50.364m-50.364 53.947v53.947m0-53.947h50.364m-50.364 53.947v53.948m0-53.948h50.364m-50.364 53.948v53.947m0-53.947h50.364m-50.364 53.947v53.948m0-53.948h50.364m-50.364 53.948V1012m0-53.947h50.364M513.818 1012h50.364m0-1025v53.947m0-53.947h50.363m-50.363 53.947v53.948m0-53.948h50.363m-50.363 53.948v53.947m0-53.947h50.363m-50.363 53.947v53.947m0-53.947h50.363m-50.363 53.947v53.948m0-53.948h50.363m-50.363 53.948v53.947m0-53.947h50.363m-50.363 53.947v53.948m0-53.948h50.363m-50.363 53.948v53.947m0-53.947h50.363m-50.363 53.947v53.947m0-53.947h50.363m-50.363 53.947v53.948m0-53.948h50.363m-50.363 53.948v53.947m0-53.947h50.363m-50.363 53.947v53.947m0-53.947h50.363m-50.363 53.947v53.948m0-53.948h50.363m-50.363 53.948v53.947m0-53.947h50.363m-50.363 53.947v53.947m0-53.947h50.363m-50.363 53.947v53.948m0-53.948h50.363m-50.363 53.948v53.947m0-53.947h50.363m-50.363 53.947v53.948m0-53.948h50.363m-50.363 53.948V1012m0-53.947h50.363M564.182 1012h50.363m0-1025v53.947m0-53.947h50.364m-50.364 53.947v53.948m0-53.948h50.364m-50.364 53.948v53.947m0-53.947h50.364m-50.364 53.947v53.947m0-53.947h50.364m-50.364 53.947v53.948m0-53.948h50.364m-50.364 53.948v53.947m0-53.947h50.364m-50.364 53.947v53.948m0-53.948h50.364m-50.364 53.948v53.947m0-53.947h50.364m-50.364 53.947v53.947m0-53.947h50.364m-50.364 53.947v53.948m0-53.948h50.364m-50.364 53.948v53.947m0-53.947h50.364m-50.364 53.947v53.947m0-53.947h50.364m-50.364 53.947v53.948m0-53.948h50.364m-50.364 53.948v53.947m0-53.947h50.364m-50.364 53.947v53.947m0-53.947h50.364m-50.364 53.947v53.948m0-53.948h50.364m-50.364 53.948v53.947m0-53.947h50.364m-50.364 53.947v53.948m0-53.948h50.364m-50.364 53.948V1012m0-53.947h50.364M614.545 1012h50.364m0-1025v53.947m0-53.947h50.364m-50.364 53.947v53.948m0-53.948h50.364m-50.364 53.948v53.947m0-53.947h50.364m-50.364 53.947v53.947m0-53.947h50.364m-50.364 53.947v53.948m0-53.948h50.364m-50.364 53.948v53.947m0-53.947h50.364m-50.364 53.947v53.948m0-53.948h50.364m-50.364 53.948v53.947m0-53.947h50.364m-50.364 53.947v53.947m0-53.947h50.364m-50.364 53.947v53.948m0-53.948h50.364m-50.364 53.948v53.947m0-53.947h50.364m-50.364 53.947v53.947m0-53.947h50.364m-50.364 53.947v53.948m0-53.948h50.364m-50.364 53.948v53.947m0-53.947h50.364m-50.364 53.947v53.947m0-53.947h50.364m-50.364 53.947v53.948m0-53.948h50.364m-50.364 53.948v53.947m0-53.947h50.364m-50.364 53.947v53.948m0-53.948h50.364m-50.364 53.948V1012m0-53.947h50.364M664.909 1012h50.364m0-1025v53.947m0-53.947h50.363m-50.363 53.947v53.948m0-53.948h50.363m-50.363 53.948v53.947m0-53.947h50.363m-50.363 53.947v53.947m0-53.947h50.363m-50.363 53.947v53.948m0-53.948h50.363m-50.363 53.948v53.947m0-53.947h50.363m-50.363 53.947v53.948m0-53.948h50.363m-50.363 53.948v53.947m0-53.947h50.363m-50.363 53.947v53.947m0-53.947h50.363m-50.363 53.947v53.948m0-53.948h50.363m-50.363 53.948v53.947m0-53.947h50.363m-50.363 53.947v53.947m0-53.947h50.363m-50.363 53.947v53.948m0-53.948h50.363m-50.363 53.948v53.947m0-53.947h50.363m-50.363 53.947v53.947m0-53.947h50.363m-50.363 53.947v53.948m0-53.948h50.363m-50.363 53.948v53.947m0-53.947h50.363m-50.363 53.947v53.948m0-53.948h50.363m-50.363 53.948V1012m0-53.947h50.363M715.273 1012h50.363m0-1025v53.947m0-53.947H816m-50.364 53.947v53.948m0-53.948H816m-50.364 53.948v53.947m0-53.947H816m-50.364 53.947v53.947m0-53.947H816m-50.364 53.947v53.948m0-53.948H816m-50.364 53.948v53.947m0-53.947H816m-50.364 53.947v53.948m0-53.948H816m-50.364 53.948v53.947m0-53.947H816m-50.364 53.947v53.947m0-53.947H816m-50.364 53.947v53.948m0-53.948H816m-50.364 53.948v53.947m0-53.947H816m-50.364 53.947v53.947m0-53.947H816m-50.364 53.947v53.948m0-53.948H816m-50.364 53.948v53.947m0-53.947H816m-50.364 53.947v53.947m0-53.947H816m-50.364 53.947v53.948m0-53.948H816m-50.364 53.948v53.947m0-53.947H816m-50.364 53.947v53.948m0-53.948H816m-50.364 53.948V1012m0-53.947H816M765.636 1012H816m0-1025v53.947M816-13h50.364M816 40.947v53.948m0-53.948h50.364M816 94.895v53.947m0-53.947h50.364M816 148.842v53.947m0-53.947h50.364M816 202.789v53.948m0-53.948h50.364M816 256.737v53.947m0-53.947h50.364M816 310.684v53.948m0-53.948h50.364M816 364.632v53.947m0-53.947h50.364M816 418.579v53.947m0-53.947h50.364M816 472.526v53.948m0-53.948h50.364M816 526.474v53.947m0-53.947h50.364M816 580.421v53.947m0-53.947h50.364M816 634.368v53.948m0-53.948h50.364M816 688.316v53.947m0-53.947h50.364M816 742.263v53.947m0-53.947h50.364M816 796.21v53.948m0-53.948h50.364M816 850.158v53.947m0-53.947h50.364M816 904.105v53.948m0-53.948h50.364M816 958.053V1012m0-53.947h50.364M816 1012h50.364m0-1025v53.947m0-53.947h50.363m-50.363 53.947v53.948m0-53.948h50.363m-50.363 53.948v53.947m0-53.947h50.363m-50.363 53.947v53.947m0-53.947h50.363m-50.363 53.947v53.948m0-53.948h50.363m-50.363 53.948v53.947m0-53.947h50.363m-50.363 53.947v53.948m0-53.948h50.363m-50.363 53.948v53.947m0-53.947h50.363m-50.363 53.947v53.947m0-53.947h50.363m-50.363 53.947v53.948m0-53.948h50.363m-50.363 53.948v53.947m0-53.947h50.363m-50.363 53.947v53.947m0-53.947h50.363m-50.363 53.947v53.948m0-53.948h50.363m-50.363 53.948v53.947m0-53.947h50.363m-50.363 53.947v53.947m0-53.947h50.363m-50.363 53.947v53.948m0-53.948h50.363m-50.363 53.948v53.947m0-53.947h50.363m-50.363 53.947v53.948m0-53.948h50.363m-50.363 53.948V1012m0-53.947h50.363M866.364 1012h50.363m0-1025v53.947m0-53.947h50.364m-50.364 53.947v53.948m0-53.948h50.364m-50.364 53.948v53.947m0-53.947h50.364m-50.364 53.947v53.947m0-53.947h50.364m-50.364 53.947v53.948m0-53.948h50.364m-50.364 53.948v53.947m0-53.947h50.364m-50.364 53.947v53.948m0-53.948h50.364m-50.364 53.948v53.947m0-53.947h50.364m-50.364 53.947v53.947m0-53.947h50.364m-50.364 53.947v53.948m0-53.948h50.364m-50.364 53.948v53.947m0-53.947h50.364m-50.364 53.947v53.947m0-53.947h50.364m-50.364 53.947v53.948m0-53.948h50.364m-50.364 53.948v53.947m0-53.947h50.364m-50.364 53.947v53.947m0-53.947h50.364m-50.364 53.947v53.948m0-53.948h50.364m-50.364 53.948v53.947m0-53.947h50.364m-50.364 53.947v53.948m0-53.948h50.364m-50.364 53.948V1012m0-53.947h50.364M916.727 1012h50.364m0-1025v53.947m0-53.947h50.359m-50.359 53.947v53.948m0-53.948h50.359m-50.359 53.948v53.947m0-53.947h50.359m-50.359 53.947v53.947m0-53.947h50.359m-50.359 53.947v53.948m0-53.948h50.359m-50.359 53.948v53.947m0-53.947h50.359m-50.359 53.947v53.948m0-53.948h50.359m-50.359 53.948v53.947m0-53.947h50.359m-50.359 53.947v53.947m0-53.947h50.359m-50.359 53.947v53.948m0-53.948h50.359m-50.359 53.948v53.947m0-53.947h50.359m-50.359 53.947v53.947m0-53.947h50.359m-50.359 53.947v53.948m0-53.948h50.359m-50.359 53.948v53.947m0-53.947h50.359m-50.359 53.947v53.947m0-53.947h50.359m-50.359 53.947v53.948m0-53.948h50.359m-50.359 53.948v53.947m0-53.947h50.359m-50.359 53.947v53.948m0-53.948h50.359m-50.359 53.948V1012m0-53.947h50.359M967.091 1012h50.359m0-1025v53.947m0-53.947h50.37m-50.37 53.947v53.948m0-53.948h50.37m-50.37 53.948v53.947m0-53.947h50.37m-50.37 53.947v53.947m0-53.947h50.37m-50.37 53.947v53.948m0-53.948h50.37m-50.37 53.948v53.947m0-53.947h50.37m-50.37 53.947v53.948m0-53.948h50.37m-50.37 53.948v53.947m0-53.947h50.37m-50.37 53.947v53.947m0-53.947h50.37m-50.37 53.947v53.948m0-53.948h50.37m-50.37 53.948v53.947m0-53.947h50.37m-50.37 53.947v53.947m0-53.947h50.37m-50.37 53.947v53.948m0-53.948h50.37m-50.37 53.948v53.947m0-53.947h50.37m-50.37 53.947v53.947m0-53.947h50.37m-50.37 53.947v53.948m0-53.948h50.37m-50.37 53.948v53.947m0-53.947h50.37m-50.37 53.947v53.948m0-53.948h50.37m-50.37 53.948V1012m0-53.947h50.37M1017.45 1012h50.37m0-1025v53.947m0-53.947h50.36m-50.36 53.947v53.948m0-53.948h50.36m-50.36 53.948v53.947m0-53.947h50.36m-50.36 53.947v53.947m0-53.947h50.36m-50.36 53.947v53.948m0-53.948h50.36m-50.36 53.948v53.947m0-53.947h50.36m-50.36 53.947v53.948m0-53.948h50.36m-50.36 53.948v53.947m0-53.947h50.36m-50.36 53.947v53.947m0-53.947h50.36m-50.36 53.947v53.948m0-53.948h50.36m-50.36 53.948v53.947m0-53.947h50.36m-50.36 53.947v53.947m0-53.947h50.36m-50.36 53.947v53.948m0-53.948h50.36m-50.36 53.948v53.947m0-53.947h50.36m-50.36 53.947v53.947m0-53.947h50.36m-50.36 53.947v53.948m0-53.948h50.36m-50.36 53.948v53.947m0-53.947h50.36m-50.36 53.947v53.948m0-53.948h50.36m-50.36 53.948V1012m0-53.947h50.36M1067.82 1012h50.36m0-1025v53.947m0-53.947h50.37m-50.37 53.947v53.948m0-53.948h50.37m-50.37 53.948v53.947m0-53.947h50.37m-50.37 53.947v53.947m0-53.947h50.37m-50.37 53.947v53.948m0-53.948h50.37m-50.37 53.948v53.947m0-53.947h50.37m-50.37 53.947v53.948m0-53.948h50.37m-50.37 53.948v53.947m0-53.947h50.37m-50.37 53.947v53.947m0-53.947h50.37m-50.37 53.947v53.948m0-53.948h50.37m-50.37 53.948v53.947m0-53.947h50.37m-50.37 53.947v53.947m0-53.947h50.37m-50.37 53.947v53.948m0-53.948h50.37m-50.37 53.948v53.947m0-53.947h50.37m-50.37 53.947v53.947m0-53.947h50.37m-50.37 53.947v53.948m0-53.948h50.37m-50.37 53.948v53.947m0-53.947h50.37m-50.37 53.947v53.948m0-53.948h50.37m-50.37 53.948V1012m0-53.947h50.37M1118.18 1012h50.37m0-1025v53.947m0-53.947h50.36m-50.36 53.947v53.948m0-53.948h50.36m-50.36 53.948v53.947m0-53.947h50.36m-50.36 53.947v53.947m0-53.947h50.36m-50.36 53.947v53.948m0-53.948h50.36m-50.36 53.948v53.947m0-53.947h50.36m-50.36 53.947v53.948m0-53.948h50.36m-50.36 53.948v53.947m0-53.947h50.36m-50.36 53.947v53.947m0-53.947h50.36m-50.36 53.947v53.948m0-53.948h50.36m-50.36 53.948v53.947m0-53.947h50.36m-50.36 53.947v53.947m0-53.947h50.36m-50.36 53.947v53.948m0-53.948h50.36m-50.36 53.948v53.947m0-53.947h50.36m-50.36 53.947v53.947m0-53.947h50.36m-50.36 53.947v53.948m0-53.948h50.36m-50.36 53.948v53.947m0-53.947h50.36m-50.36 53.947v53.948m0-53.948h50.36m-50.36 53.948V1012m0-53.947h50.36M1168.55 1012h50.36m0-1025v53.947m0-53.947h50.36m-50.36 53.947v53.948m0-53.948h50.36m-50.36 53.948v53.947m0-53.947h50.36m-50.36 53.947v53.947m0-53.947h50.36m-50.36 53.947v53.948m0-53.948h50.36m-50.36 53.948v53.947m0-53.947h50.36m-50.36 53.947v53.948m0-53.948h50.36m-50.36 53.948v53.947m0-53.947h50.36m-50.36 53.947v53.947m0-53.947h50.36m-50.36 53.947v53.948m0-53.948h50.36m-50.36 53.948v53.947m0-53.947h50.36m-50.36 53.947v53.947m0-53.947h50.36m-50.36 53.947v53.948m0-53.948h50.36m-50.36 53.948v53.947m0-53.947h50.36m-50.36 53.947v53.947m0-53.947h50.36m-50.36 53.947v53.948m0-53.948h50.36m-50.36 53.948v53.947m0-53.947h50.36m-50.36 53.947v53.948m0-53.948h50.36m-50.36 53.948V1012m0-53.947h50.36M1218.91 1012h50.36m0-1025v53.947m0-53.947h50.37m-50.37 53.947v53.948m0-53.948h50.37m-50.37 53.948v53.947m0-53.947h50.37m-50.37 53.947v53.947m0-53.947h50.37m-50.37 53.947v53.948m0-53.948h50.37m-50.37 53.948v53.947m0-53.947h50.37m-50.37 53.947v53.948m0-53.948h50.37m-50.37 53.948v53.947m0-53.947h50.37m-50.37 53.947v53.947m0-53.947h50.37m-50.37 53.947v53.948m0-53.948h50.37m-50.37 53.948v53.947m0-53.947h50.37m-50.37 53.947v53.947m0-53.947h50.37m-50.37 53.947v53.948m0-53.948h50.37m-50.37 53.948v53.947m0-53.947h50.37m-50.37 53.947v53.947m0-53.947h50.37m-50.37 53.947v53.948m0-53.948h50.37m-50.37 53.948v53.947m0-53.947h50.37m-50.37 53.947v53.948m0-53.948h50.37m-50.37 53.948V1012m0-53.947h50.37M1269.27 1012h50.37m0-1025v53.947m0-53.947H1370m-50.36 53.947v53.948m0-53.948H1370m-50.36 53.948v53.947m0-53.947H1370m-50.36 53.947v53.947m0-53.947H1370m-50.36 53.947v53.948m0-53.948H1370m-50.36 53.948v53.947m0-53.947H1370m-50.36 53.947v53.948m0-53.948H1370m-50.36 53.948v53.947m0-53.947H1370m-50.36 53.947v53.947m0-53.947H1370m-50.36 53.947v53.948m0-53.948H1370m-50.36 53.948v53.947m0-53.947H1370m-50.36 53.947v53.947m0-53.947H1370m-50.36 53.947v53.948m0-53.948H1370m-50.36 53.948v53.947m0-53.947H1370m-50.36 53.947v53.947m0-53.947H1370m-50.36 53.947v53.948m0-53.948H1370m-50.36 53.948v53.947m0-53.947H1370m-50.36 53.947v53.948m0-53.948H1370m-50.36 53.948V1012m0-53.947H1370M1319.64 1012H1370m0-1025v53.947M1370-13h50.36M1370 40.947v53.948m0-53.948h50.36M1370 94.895v53.947m0-53.947h50.36M1370 148.842v53.947m0-53.947h50.36M1370 202.789v53.948m0-53.948h50.36M1370 256.737v53.947m0-53.947h50.36M1370 310.684v53.948m0-53.948h50.36M1370 364.632v53.947m0-53.947h50.36M1370 418.579v53.947m0-53.947h50.36M1370 472.526v53.948m0-53.948h50.36M1370 526.474v53.947m0-53.947h50.36M1370 580.421v53.947m0-53.947h50.36M1370 634.368v53.948m0-53.948h50.36M1370 688.316v53.947m0-53.947h50.36M1370 742.263v53.947m0-53.947h50.36M1370 796.21v53.948m0-53.948h50.36M1370 850.158v53.947m0-53.947h50.36M1370 904.105v53.948m0-53.948h50.36M1370 958.053V1012m0-53.947h50.36M1370 1012h50.36m0-1025v53.947m0-53.947h50.37m-50.37 53.947v53.948m0-53.948h50.37m-50.37 53.948v53.947m0-53.947h50.37m-50.37 53.947v53.947m0-53.947h50.37m-50.37 53.947v53.948m0-53.948h50.37m-50.37 53.948v53.947m0-53.947h50.37m-50.37 53.947v53.948m0-53.948h50.37m-50.37 53.948v53.947m0-53.947h50.37m-50.37 53.947v53.947m0-53.947h50.37m-50.37 53.947v53.948m0-53.948h50.37m-50.37 53.948v53.947m0-53.947h50.37m-50.37 53.947v53.947m0-53.947h50.37m-50.37 53.947v53.948m0-53.948h50.37m-50.37 53.948v53.947m0-53.947h50.37m-50.37 53.947v53.947m0-53.947h50.37m-50.37 53.947v53.948m0-53.948h50.37m-50.37 53.948v53.947m0-53.947h50.37m-50.37 53.947v53.948m0-53.948h50.37m-50.37 53.948V1012m0-53.947h50.37M1420.36 1012h50.37m0-1025v53.947m0-53.947h50.36m-50.36 53.947v53.948m0-53.948h50.36m-50.36 53.948v53.947m0-53.947h50.36m-50.36 53.947v53.947m0-53.947h50.36m-50.36 53.947v53.948m0-53.948h50.36m-50.36 53.948v53.947m0-53.947h50.36m-50.36 53.947v53.948m0-53.948h50.36m-50.36 53.948v53.947m0-53.947h50.36m-50.36 53.947v53.947m0-53.947h50.36m-50.36 53.947v53.948m0-53.948h50.36m-50.36 53.948v53.947m0-53.947h50.36m-50.36 53.947v53.947m0-53.947h50.36m-50.36 53.947v53.948m0-53.948h50.36m-50.36 53.948v53.947m0-53.947h50.36m-50.36 53.947v53.947m0-53.947h50.36m-50.36 53.947v53.948m0-53.948h50.36m-50.36 53.948v53.947m0-53.947h50.36m-50.36 53.947v53.948m0-53.948h50.36m-50.36 53.948V1012m0-53.947h50.36M1470.73 1012h50.36m0-1025v53.947m0-53.947h50.36m-50.36 53.947v53.948m0-53.948h50.36m-50.36 53.948v53.947m0-53.947h50.36m-50.36 53.947v53.947m0-53.947h50.36m-50.36 53.947v53.948m0-53.948h50.36m-50.36 53.948v53.947m0-53.947h50.36m-50.36 53.947v53.948m0-53.948h50.36m-50.36 53.948v53.947m0-53.947h50.36m-50.36 53.947v53.947m0-53.947h50.36m-50.36 53.947v53.948m0-53.948h50.36m-50.36 53.948v53.947m0-53.947h50.36m-50.36 53.947v53.947m0-53.947h50.36m-50.36 53.947v53.948m0-53.948h50.36m-50.36 53.948v53.947m0-53.947h50.36m-50.36 53.947v53.947m0-53.947h50.36m-50.36 53.947v53.948m0-53.948h50.36m-50.36 53.948v53.947m0-53.947h50.36m-50.36 53.947v53.948m0-53.948h50.36m-50.36 53.948V1012m0-53.947h50.36M1521.09 1012h50.36m0-1025v53.947m0-53.947h50.37m-50.37 53.947v53.948m0-53.948h50.37m-50.37 53.948v53.947m0-53.947h50.37m-50.37 53.947v53.947m0-53.947h50.37m-50.37 53.947v53.948m0-53.948h50.37m-50.37 53.948v53.947m0-53.947h50.37m-50.37 53.947v53.948m0-53.948h50.37m-50.37 53.948v53.947m0-53.947h50.37m-50.37 53.947v53.947m0-53.947h50.37m-50.37 53.947v53.948m0-53.948h50.37m-50.37 53.948v53.947m0-53.947h50.37m-50.37 53.947v53.947m0-53.947h50.37m-50.37 53.947v53.948m0-53.948h50.37m-50.37 53.948v53.947m0-53.947h50.37m-50.37 53.947v53.947m0-53.947h50.37m-50.37 53.947v53.948m0-53.948h50.37m-50.37 53.948v53.947m0-53.947h50.37m-50.37 53.947v53.948m0-53.948h50.37m-50.37 53.948V1012m0-53.947h50.37M1571.45 1012h50.37m0-1025v53.947m0-53.947h50.36m-50.36 53.947v53.948m0-53.948h50.36m-50.36 53.948v53.947m0-53.947h50.36m-50.36 53.947v53.947m0-53.947h50.36m-50.36 53.947v53.948m0-53.948h50.36m-50.36 53.948v53.947m0-53.947h50.36m-50.36 53.947v53.948m0-53.948h50.36m-50.36 53.948v53.947m0-53.947h50.36m-50.36 53.947v53.947m0-53.947h50.36m-50.36 53.947v53.948m0-53.948h50.36m-50.36 53.948v53.947m0-53.947h50.36m-50.36 53.947v53.947m0-53.947h50.36m-50.36 53.947v53.948m0-53.948h50.36m-50.36 53.948v53.947m0-53.947h50.36m-50.36 53.947v53.947m0-53.947h50.36m-50.36 53.947v53.948m0-53.948h50.36m-50.36 53.948v53.947m0-53.947h50.36m-50.36 53.947v53.948m0-53.948h50.36m-50.36 53.948V1012m0-53.947h50.36M1621.82 1012h50.36m0-1025v53.947m0-53.947h50.37m-50.37 53.947v53.948m0-53.948h50.37m-50.37 53.948v53.947m0-53.947h50.37m-50.37 53.947v53.947m0-53.947h50.37m-50.37 53.947v53.948m0-53.948h50.37m-50.37 53.948v53.947m0-53.947h50.37m-50.37 53.947v53.948m0-53.948h50.37m-50.37 53.948v53.947m0-53.947h50.37m-50.37 53.947v53.947m0-53.947h50.37m-50.37 53.947v53.948m0-53.948h50.37m-50.37 53.948v53.947m0-53.947h50.37m-50.37 53.947v53.947m0-53.947h50.37m-50.37 53.947v53.948m0-53.948h50.37m-50.37 53.948v53.947m0-53.947h50.37m-50.37 53.947v53.947m0-53.947h50.37m-50.37 53.947v53.948m0-53.948h50.37m-50.37 53.948v53.947m0-53.947h50.37m-50.37 53.947v53.948m0-53.948h50.37m-50.37 53.948V1012m0-53.947h50.37M1672.18 1012h50.37m0-1025v53.947m0-53.947h50.36m-50.36 53.947v53.948m0-53.948h50.36m-50.36 53.948v53.947m0-53.947h50.36m-50.36 53.947v53.947m0-53.947h50.36m-50.36 53.947v53.948m0-53.948h50.36m-50.36 53.948v53.947m0-53.947h50.36m-50.36 53.947v53.948m0-53.948h50.36m-50.36 53.948v53.947m0-53.947h50.36m-50.36 53.947v53.947m0-53.947h50.36m-50.36 53.947v53.948m0-53.948h50.36m-50.36 53.948v53.947m0-53.947h50.36m-50.36 53.947v53.947m0-53.947h50.36m-50.36 53.947v53.948m0-53.948h50.36m-50.36 53.948v53.947m0-53.947h50.36m-50.36 53.947v53.947m0-53.947h50.36m-50.36 53.947v53.948m0-53.948h50.36m-50.36 53.948v53.947m0-53.947h50.36m-50.36 53.947v53.948m0-53.948h50.36m-50.36 53.948V1012m0-53.947h50.36M1722.55 1012h50.36m0-1025v53.947m0-53.947h50.36m-50.36 53.947v53.948m0-53.948h50.36m-50.36 53.948v53.947m0-53.947h50.36m-50.36 53.947v53.947m0-53.947h50.36m-50.36 53.947v53.948m0-53.948h50.36m-50.36 53.948v53.947m0-53.947h50.36m-50.36 53.947v53.948m0-53.948h50.36m-50.36 53.948v53.947m0-53.947h50.36m-50.36 53.947v53.947m0-53.947h50.36m-50.36 53.947v53.948m0-53.948h50.36m-50.36 53.948v53.947m0-53.947h50.36m-50.36 53.947v53.947m0-53.947h50.36m-50.36 53.947v53.948m0-53.948h50.36m-50.36 53.948v53.947m0-53.947h50.36m-50.36 53.947v53.947m0-53.947h50.36m-50.36 53.947v53.948m0-53.948h50.36m-50.36 53.948v53.947m0-53.947h50.36m-50.36 53.947v53.948m0-53.948h50.36m-50.36 53.948V1012m0-53.947h50.36M1772.91 1012h50.36m0-1025v53.947m0-53.947h50.37m-50.37 53.947v53.948m0-53.948h50.37m-50.37 53.948v53.947m0-53.947h50.37m-50.37 53.947v53.947m0-53.947h50.37m-50.37 53.947v53.948m0-53.948h50.37m-50.37 53.948v53.947m0-53.947h50.37m-50.37 53.947v53.948m0-53.948h50.37m-50.37 53.948v53.947m0-53.947h50.37m-50.37 53.947v53.947m0-53.947h50.37m-50.37 53.947v53.948m0-53.948h50.37m-50.37 53.948v53.947m0-53.947h50.37m-50.37 53.947v53.947m0-53.947h50.37m-50.37 53.947v53.948m0-53.948h50.37m-50.37 53.948v53.947m0-53.947h50.37m-50.37 53.947v53.947m0-53.947h50.37m-50.37 53.947v53.948m0-53.948h50.37m-50.37 53.948v53.947m0-53.947h50.37m-50.37 53.947v53.948m0-53.948h50.37m-50.37 53.948V1012m0-53.947h50.37M1823.27 1012h50.37m0-1025v53.947m0-53.947H1924v53.947m-50.36 0v53.948m0-53.948H1924m-50.36 53.948v53.947m0-53.947H1924m-50.36 53.947v53.947m0-53.947H1924m-50.36 53.947v53.948m0-53.948H1924m-50.36 53.948v53.947m0-53.947H1924m-50.36 53.947v53.948m0-53.948H1924m-50.36 53.948v53.947m0-53.947H1924m-50.36 53.947v53.947m0-53.947H1924m-50.36 53.947v53.948m0-53.948H1924m-50.36 53.948v53.947m0-53.947H1924m-50.36 53.947v53.947m0-53.947H1924m-50.36 53.947v53.948m0-53.948H1924m-50.36 53.948v53.947m0-53.947H1924m-50.36 53.947v53.947m0-53.947H1924m-50.36 53.947v53.948m0-53.948H1924m-50.36 53.948v53.947m0-53.947H1924m-50.36 53.947v53.948m0-53.948H1924m-50.36 53.948V1012m0-53.947H1924M1873.64 1012H1924v-53.947m0-917.106v53.948m0 0v53.947m0 0v53.947m0 0v53.948m0 0v53.947m0 0v53.948m0 0v53.947m0 0v53.947m0 0v53.948m0 0v53.947m0 0v53.947m0 0v53.948m0 0v53.947m0 0v53.947m0 0v53.948m0 0v53.947m0 0v53.948" opacity=".14" style="mix-blend-mode:color-burn"/><defs><radialGradient id="a" cx="0" cy="0" r="1" gradientTransform="matrix(0 512.5 -894.729 0 816 499.5)" gradientUnits="userSpaceOnUse"><stop stop-color="#18181B"/><stop offset="1" stop-color="#18181B" stop-opacity=".2"/></radialGradient></defs></svg>