<svg width="1490" height="930" viewBox="0 0 1490 930" fill="none" xmlns="http://www.w3.org/2000/svg">
<g style="mix-blend-mode:color-burn" opacity="0.14">
<path d="M-241.636 -13H-292V40.9474M-241.636 -13V40.9474M-241.636 -13H-191.273M-241.636 40.9474H-292M-241.636 40.9474V94.8947M-241.636 40.9474H-191.273M-292 40.9474V94.8947M-241.636 94.8947H-292M-241.636 94.8947V148.842M-241.636 94.8947H-191.273M-292 94.8947V148.842M-241.636 148.842H-292M-241.636 148.842V202.789M-241.636 148.842H-191.273M-292 148.842V202.789M-241.636 202.789H-292M-241.636 202.789V256.737M-241.636 202.789H-191.273M-292 202.789V256.737M-241.636 256.737H-292M-241.636 256.737V310.684M-241.636 256.737H-191.273M-292 256.737V310.684M-241.636 310.684H-292M-241.636 310.684V364.632M-241.636 310.684H-191.273M-292 310.684V364.632M-241.636 364.632H-292M-241.636 364.632V418.579M-241.636 364.632H-191.273M-292 364.632V418.579M-241.636 418.579H-292M-241.636 418.579V472.526M-241.636 418.579H-191.273M-292 418.579V472.526M-241.636 472.526H-292M-241.636 472.526V526.474M-241.636 472.526H-191.273M-292 472.526V526.474M-241.636 526.474H-292M-241.636 526.474V580.421M-241.636 526.474H-191.273M-292 526.474V580.421M-241.636 580.421H-292M-241.636 580.421V634.368M-241.636 580.421H-191.273M-292 580.421V634.368M-241.636 634.368H-292M-241.636 634.368V688.316M-241.636 634.368H-191.273M-292 634.368V688.316M-241.636 688.316H-292M-241.636 688.316V742.263M-241.636 688.316H-191.273M-292 688.316V742.263M-241.636 742.263H-292M-241.636 742.263V796.21M-241.636 742.263H-191.273M-292 742.263V796.21M-241.636 796.21H-292M-241.636 796.21V850.158M-241.636 796.21H-191.273M-292 796.21V850.158M-241.636 850.158H-292M-241.636 850.158V904.105M-241.636 850.158H-191.273M-292 850.158V904.105M-241.636 904.105H-292M-241.636 904.105V958.053M-241.636 904.105H-191.273M-292 904.105V958.053M-241.636 958.053H-292M-241.636 958.053V1012M-241.636 958.053H-191.273M-292 958.053V1012H-241.636M-241.636 1012H-191.273M-191.273 -13V40.9474M-191.273 -13H-140.909M-191.273 40.9474V94.8947M-191.273 40.9474H-140.909M-191.273 94.8947V148.842M-191.273 94.8947H-140.909M-191.273 148.842V202.789M-191.273 148.842H-140.909M-191.273 202.789V256.737M-191.273 202.789H-140.909M-191.273 256.737V310.684M-191.273 256.737H-140.909M-191.273 310.684V364.632M-191.273 310.684H-140.909M-191.273 364.632V418.579M-191.273 364.632H-140.909M-191.273 418.579V472.526M-191.273 418.579H-140.909M-191.273 472.526V526.474M-191.273 472.526H-140.909M-191.273 526.474V580.421M-191.273 526.474H-140.909M-191.273 580.421V634.368M-191.273 580.421H-140.909M-191.273 634.368V688.316M-191.273 634.368H-140.909M-191.273 688.316V742.263M-191.273 688.316H-140.909M-191.273 742.263V796.21M-191.273 742.263H-140.909M-191.273 796.21V850.158M-191.273 796.21H-140.909M-191.273 850.158V904.105M-191.273 850.158H-140.909M-191.273 904.105V958.053M-191.273 904.105H-140.909M-191.273 958.053V1012M-191.273 958.053H-140.909M-191.273 1012H-140.909M-140.909 -13V40.9474M-140.909 -13H-90.5455M-140.909 40.9474V94.8947M-140.909 40.9474H-90.5455M-140.909 94.8947V148.842M-140.909 94.8947H-90.5455M-140.909 148.842V202.789M-140.909 148.842H-90.5455M-140.909 202.789V256.737M-140.909 202.789H-90.5455M-140.909 256.737V310.684M-140.909 256.737H-90.5455M-140.909 310.684V364.632M-140.909 310.684H-90.5455M-140.909 364.632V418.579M-140.909 364.632H-90.5455M-140.909 418.579V472.526M-140.909 418.579H-90.5455M-140.909 472.526V526.474M-140.909 472.526H-90.5455M-140.909 526.474V580.421M-140.909 526.474H-90.5455M-140.909 580.421V634.368M-140.909 580.421H-90.5455M-140.909 634.368V688.316M-140.909 634.368H-90.5455M-140.909 688.316V742.263M-140.909 688.316H-90.5455M-140.909 742.263V796.21M-140.909 742.263H-90.5455M-140.909 796.21V850.158M-140.909 796.21H-90.5455M-140.909 850.158V904.105M-140.909 850.158H-90.5455M-140.909 904.105V958.053M-140.909 904.105H-90.5455M-140.909 958.053V1012M-140.909 958.053H-90.5455M-140.909 1012H-90.5455M-90.5455 -13V40.9474M-90.5455 -13H-40.1818M-90.5455 40.9474V94.8947M-90.5455 40.9474H-40.1818M-90.5455 94.8947V148.842M-90.5455 94.8947H-40.1818M-90.5455 148.842V202.789M-90.5455 148.842H-40.1818M-90.5455 202.789V256.737M-90.5455 202.789H-40.1818M-90.5455 256.737V310.684M-90.5455 256.737H-40.1818M-90.5455 310.684V364.632M-90.5455 310.684H-40.1818M-90.5455 364.632V418.579M-90.5455 364.632H-40.1818M-90.5455 418.579V472.526M-90.5455 418.579H-40.1818M-90.5455 472.526V526.474M-90.5455 472.526H-40.1818M-90.5455 526.474V580.421M-90.5455 526.474H-40.1818M-90.5455 580.421V634.368M-90.5455 580.421H-40.1818M-90.5455 634.368V688.316M-90.5455 634.368H-40.1818M-90.5455 688.316V742.263M-90.5455 688.316H-40.1818M-90.5455 742.263V796.21M-90.5455 742.263H-40.1818M-90.5455 796.21V850.158M-90.5455 796.21H-40.1818M-90.5455 850.158V904.105M-90.5455 850.158H-40.1818M-90.5455 904.105V958.053M-90.5455 904.105H-40.1818M-90.5455 958.053V1012M-90.5455 958.053H-40.1818M-90.5455 1012H-40.1818M-40.1818 -13V40.9474M-40.1818 -13H10.1818M-40.1818 40.9474V94.8947M-40.1818 40.9474H10.1818M-40.1818 94.8947V148.842M-40.1818 94.8947H10.1818M-40.1818 148.842V202.789M-40.1818 148.842H10.1818M-40.1818 202.789V256.737M-40.1818 202.789H10.1818M-40.1818 256.737V310.684M-40.1818 256.737H10.1818M-40.1818 310.684V364.632M-40.1818 310.684H10.1818M-40.1818 364.632V418.579M-40.1818 364.632H10.1818M-40.1818 418.579V472.526M-40.1818 418.579H10.1818M-40.1818 472.526V526.474M-40.1818 472.526H10.1818M-40.1818 526.474V580.421M-40.1818 526.474H10.1818M-40.1818 580.421V634.368M-40.1818 580.421H10.1818M-40.1818 634.368V688.316M-40.1818 634.368H10.1818M-40.1818 688.316V742.263M-40.1818 688.316H10.1818M-40.1818 742.263V796.21M-40.1818 742.263H10.1818M-40.1818 796.21V850.158M-40.1818 796.21H10.1818M-40.1818 850.158V904.105M-40.1818 850.158H10.1818M-40.1818 904.105V958.053M-40.1818 904.105H10.1818M-40.1818 958.053V1012M-40.1818 958.053H10.1818M-40.1818 1012H10.1818M10.1818 -13V40.9474M10.1818 -13H60.5454M10.1818 40.9474V94.8947M10.1818 40.9474H60.5454M10.1818 94.8947V148.842M10.1818 94.8947H60.5454M10.1818 148.842V202.789M10.1818 148.842H60.5454M10.1818 202.789V256.737M10.1818 202.789H60.5454M10.1818 256.737V310.684M10.1818 256.737H60.5454M10.1818 310.684V364.632M10.1818 310.684H60.5454M10.1818 364.632V418.579M10.1818 364.632H60.5454M10.1818 418.579V472.526M10.1818 418.579H60.5454M10.1818 472.526V526.474M10.1818 472.526H60.5454M10.1818 526.474V580.421M10.1818 526.474H60.5454M10.1818 580.421V634.368M10.1818 580.421H60.5454M10.1818 634.368V688.316M10.1818 634.368H60.5454M10.1818 688.316V742.263M10.1818 688.316H60.5454M10.1818 742.263V796.21M10.1818 742.263H60.5454M10.1818 796.21V850.158M10.1818 796.21H60.5454M10.1818 850.158V904.105M10.1818 850.158H60.5454M10.1818 904.105V958.053M10.1818 904.105H60.5454M10.1818 958.053V1012M10.1818 958.053H60.5454M10.1818 1012H60.5454M60.5454 -13V40.9474M60.5454 -13H110.909M60.5454 40.9474V94.8947M60.5454 40.9474H110.909M60.5454 94.8947V148.842M60.5454 94.8947H110.909M60.5454 148.842V202.789M60.5454 148.842H110.909M60.5454 202.789V256.737M60.5454 202.789H110.909M60.5454 256.737V310.684M60.5454 256.737H110.909M60.5454 310.684V364.632M60.5454 310.684H110.909M60.5454 364.632V418.579M60.5454 364.632H110.909M60.5454 418.579V472.526M60.5454 418.579H110.909M60.5454 472.526V526.474M60.5454 472.526H110.909M60.5454 526.474V580.421M60.5454 526.474H110.909M60.5454 580.421V634.368M60.5454 580.421H110.909M60.5454 634.368V688.316M60.5454 634.368H110.909M60.5454 688.316V742.263M60.5454 688.316H110.909M60.5454 742.263V796.21M60.5454 742.263H110.909M60.5454 796.21V850.158M60.5454 796.21H110.909M60.5454 850.158V904.105M60.5454 850.158H110.909M60.5454 904.105V958.053M60.5454 904.105H110.909M60.5454 958.053V1012M60.5454 958.053H110.909M60.5454 1012H110.909M110.909 -13V40.9474M110.909 -13H161.273M110.909 40.9474V94.8947M110.909 40.9474H161.273M110.909 94.8947V148.842M110.909 94.8947H161.273M110.909 148.842V202.789M110.909 148.842H161.273M110.909 202.789V256.737M110.909 202.789H161.273M110.909 256.737V310.684M110.909 256.737H161.273M110.909 310.684V364.632M110.909 310.684H161.273M110.909 364.632V418.579M110.909 364.632H161.273M110.909 418.579V472.526M110.909 418.579H161.273M110.909 472.526V526.474M110.909 472.526H161.273M110.909 526.474V580.421M110.909 526.474H161.273M110.909 580.421V634.368M110.909 580.421H161.273M110.909 634.368V688.316M110.909 634.368H161.273M110.909 688.316V742.263M110.909 688.316H161.273M110.909 742.263V796.21M110.909 742.263H161.273M110.909 796.21V850.158M110.909 796.21H161.273M110.909 850.158V904.105M110.909 850.158H161.273M110.909 904.105V958.053M110.909 904.105H161.273M110.909 958.053V1012M110.909 958.053H161.273M110.909 1012H161.273M161.273 -13V40.9474M161.273 -13H211.636M161.273 40.9474V94.8947M161.273 40.9474H211.636M161.273 94.8947V148.842M161.273 94.8947H211.636M161.273 148.842V202.789M161.273 148.842H211.636M161.273 202.789V256.737M161.273 202.789H211.636M161.273 256.737V310.684M161.273 256.737H211.636M161.273 310.684V364.632M161.273 310.684H211.636M161.273 364.632V418.579M161.273 364.632H211.636M161.273 418.579V472.526M161.273 418.579H211.636M161.273 472.526V526.474M161.273 472.526H211.636M161.273 526.474V580.421M161.273 526.474H211.636M161.273 580.421V634.368M161.273 580.421H211.636M161.273 634.368V688.316M161.273 634.368H211.636M161.273 688.316V742.263M161.273 688.316H211.636M161.273 742.263V796.21M161.273 742.263H211.636M161.273 796.21V850.158M161.273 796.21H211.636M161.273 850.158V904.105M161.273 850.158H211.636M161.273 904.105V958.053M161.273 904.105H211.636M161.273 958.053V1012M161.273 958.053H211.636M161.273 1012H211.636M211.636 -13V40.9474M211.636 -13H262M211.636 40.9474V94.8947M211.636 40.9474H262M211.636 94.8947V148.842M211.636 94.8947H262M211.636 148.842V202.789M211.636 148.842H262M211.636 202.789V256.737M211.636 202.789H262M211.636 256.737V310.684M211.636 256.737H262M211.636 310.684V364.632M211.636 310.684H262M211.636 364.632V418.579M211.636 364.632H262M211.636 418.579V472.526M211.636 418.579H262M211.636 472.526V526.474M211.636 472.526H262M211.636 526.474V580.421M211.636 526.474H262M211.636 580.421V634.368M211.636 580.421H262M211.636 634.368V688.316M211.636 634.368H262M211.636 688.316V742.263M211.636 688.316H262M211.636 742.263V796.21M211.636 742.263H262M211.636 796.21V850.158M211.636 796.21H262M211.636 850.158V904.105M211.636 850.158H262M211.636 904.105V958.053M211.636 904.105H262M211.636 958.053V1012M211.636 958.053H262M211.636 1012H262M262 -13V40.9474M262 -13H312.364M262 40.9474V94.8947M262 40.9474H312.364M262 94.8947V148.842M262 94.8947H312.364M262 148.842V202.789M262 148.842H312.364M262 202.789V256.737M262 202.789H312.364M262 256.737V310.684M262 256.737H312.364M262 310.684V364.632M262 310.684H312.364M262 364.632V418.579M262 364.632H312.364M262 418.579V472.526M262 418.579H312.364M262 472.526V526.474M262 472.526H312.364M262 526.474V580.421M262 526.474H312.364M262 580.421V634.368M262 580.421H312.364M262 634.368V688.316M262 634.368H312.364M262 688.316V742.263M262 688.316H312.364M262 742.263V796.21M262 742.263H312.364M262 796.21V850.158M262 796.21H312.364M262 850.158V904.105M262 850.158H312.364M262 904.105V958.053M262 904.105H312.364M262 958.053V1012M262 958.053H312.364M262 1012H312.364M312.364 -13V40.9474M312.364 -13H362.727M312.364 40.9474V94.8947M312.364 40.9474H362.727M312.364 94.8947V148.842M312.364 94.8947H362.727M312.364 148.842V202.789M312.364 148.842H362.727M312.364 202.789V256.737M312.364 202.789H362.727M312.364 256.737V310.684M312.364 256.737H362.727M312.364 310.684V364.632M312.364 310.684H362.727M312.364 364.632V418.579M312.364 364.632H362.727M312.364 418.579V472.526M312.364 418.579H362.727M312.364 472.526V526.474M312.364 472.526H362.727M312.364 526.474V580.421M312.364 526.474H362.727M312.364 580.421V634.368M312.364 580.421H362.727M312.364 634.368V688.316M312.364 634.368H362.727M312.364 688.316V742.263M312.364 688.316H362.727M312.364 742.263V796.21M312.364 742.263H362.727M312.364 796.21V850.158M312.364 796.21H362.727M312.364 850.158V904.105M312.364 850.158H362.727M312.364 904.105V958.053M312.364 904.105H362.727M312.364 958.053V1012M312.364 958.053H362.727M312.364 1012H362.727M362.727 -13V40.9474M362.727 -13H413.091M362.727 40.9474V94.8947M362.727 40.9474H413.091M362.727 94.8947V148.842M362.727 94.8947H413.091M362.727 148.842V202.789M362.727 148.842H413.091M362.727 202.789V256.737M362.727 202.789H413.091M362.727 256.737V310.684M362.727 256.737H413.091M362.727 310.684V364.632M362.727 310.684H413.091M362.727 364.632V418.579M362.727 364.632H413.091M362.727 418.579V472.526M362.727 418.579H413.091M362.727 472.526V526.474M362.727 472.526H413.091M362.727 526.474V580.421M362.727 526.474H413.091M362.727 580.421V634.368M362.727 580.421H413.091M362.727 634.368V688.316M362.727 634.368H413.091M362.727 688.316V742.263M362.727 688.316H413.091M362.727 742.263V796.21M362.727 742.263H413.091M362.727 796.21V850.158M362.727 796.21H413.091M362.727 850.158V904.105M362.727 850.158H413.091M362.727 904.105V958.053M362.727 904.105H413.091M362.727 958.053V1012M362.727 958.053H413.091M362.727 1012H413.091M413.091 -13V40.9474M413.091 -13H463.454M413.091 40.9474V94.8947M413.091 40.9474H463.454M413.091 94.8947V148.842M413.091 94.8947H463.454M413.091 148.842V202.789M413.091 148.842H463.454M413.091 202.789V256.737M413.091 202.789H463.454M413.091 256.737V310.684M413.091 256.737H463.454M413.091 310.684V364.632M413.091 310.684H463.454M413.091 364.632V418.579M413.091 364.632H463.454M413.091 418.579V472.526M413.091 418.579H463.454M413.091 472.526V526.474M413.091 472.526H463.454M413.091 526.474V580.421M413.091 526.474H463.454M413.091 580.421V634.368M413.091 580.421H463.454M413.091 634.368V688.316M413.091 634.368H463.454M413.091 688.316V742.263M413.091 688.316H463.454M413.091 742.263V796.21M413.091 742.263H463.454M413.091 796.21V850.158M413.091 796.21H463.454M413.091 850.158V904.105M413.091 850.158H463.454M413.091 904.105V958.053M413.091 904.105H463.454M413.091 958.053V1012M413.091 958.053H463.454M413.091 1012H463.454M463.454 -13V40.9474M463.454 -13H513.818M463.454 40.9474V94.8947M463.454 40.9474H513.818M463.454 94.8947V148.842M463.454 94.8947H513.818M463.454 148.842V202.789M463.454 148.842H513.818M463.454 202.789V256.737M463.454 202.789H513.818M463.454 256.737V310.684M463.454 256.737H513.818M463.454 310.684V364.632M463.454 310.684H513.818M463.454 364.632V418.579M463.454 364.632H513.818M463.454 418.579V472.526M463.454 418.579H513.818M463.454 472.526V526.474M463.454 472.526H513.818M463.454 526.474V580.421M463.454 526.474H513.818M463.454 580.421V634.368M463.454 580.421H513.818M463.454 634.368V688.316M463.454 634.368H513.818M463.454 688.316V742.263M463.454 688.316H513.818M463.454 742.263V796.21M463.454 742.263H513.818M463.454 796.21V850.158M463.454 796.21H513.818M463.454 850.158V904.105M463.454 850.158H513.818M463.454 904.105V958.053M463.454 904.105H513.818M463.454 958.053V1012M463.454 958.053H513.818M463.454 1012H513.818M513.818 -13V40.9474M513.818 -13H564.182M513.818 40.9474V94.8947M513.818 40.9474H564.182M513.818 94.8947V148.842M513.818 94.8947H564.182M513.818 148.842V202.789M513.818 148.842H564.182M513.818 202.789V256.737M513.818 202.789H564.182M513.818 256.737V310.684M513.818 256.737H564.182M513.818 310.684V364.632M513.818 310.684H564.182M513.818 364.632V418.579M513.818 364.632H564.182M513.818 418.579V472.526M513.818 418.579H564.182M513.818 472.526V526.474M513.818 472.526H564.182M513.818 526.474V580.421M513.818 526.474H564.182M513.818 580.421V634.368M513.818 580.421H564.182M513.818 634.368V688.316M513.818 634.368H564.182M513.818 688.316V742.263M513.818 688.316H564.182M513.818 742.263V796.21M513.818 742.263H564.182M513.818 796.21V850.158M513.818 796.21H564.182M513.818 850.158V904.105M513.818 850.158H564.182M513.818 904.105V958.053M513.818 904.105H564.182M513.818 958.053V1012M513.818 958.053H564.182M513.818 1012H564.182M564.182 -13V40.9474M564.182 -13H614.545M564.182 40.9474V94.8947M564.182 40.9474H614.545M564.182 94.8947V148.842M564.182 94.8947H614.545M564.182 148.842V202.789M564.182 148.842H614.545M564.182 202.789V256.737M564.182 202.789H614.545M564.182 256.737V310.684M564.182 256.737H614.545M564.182 310.684V364.632M564.182 310.684H614.545M564.182 364.632V418.579M564.182 364.632H614.545M564.182 418.579V472.526M564.182 418.579H614.545M564.182 472.526V526.474M564.182 472.526H614.545M564.182 526.474V580.421M564.182 526.474H614.545M564.182 580.421V634.368M564.182 580.421H614.545M564.182 634.368V688.316M564.182 634.368H614.545M564.182 688.316V742.263M564.182 688.316H614.545M564.182 742.263V796.21M564.182 742.263H614.545M564.182 796.21V850.158M564.182 796.21H614.545M564.182 850.158V904.105M564.182 850.158H614.545M564.182 904.105V958.053M564.182 904.105H614.545M564.182 958.053V1012M564.182 958.053H614.545M564.182 1012H614.545M614.545 -13V40.9474M614.545 -13H664.909M614.545 40.9474V94.8947M614.545 40.9474H664.909M614.545 94.8947V148.842M614.545 94.8947H664.909M614.545 148.842V202.789M614.545 148.842H664.909M614.545 202.789V256.737M614.545 202.789H664.909M614.545 256.737V310.684M614.545 256.737H664.909M614.545 310.684V364.632M614.545 310.684H664.909M614.545 364.632V418.579M614.545 364.632H664.909M614.545 418.579V472.526M614.545 418.579H664.909M614.545 472.526V526.474M614.545 472.526H664.909M614.545 526.474V580.421M614.545 526.474H664.909M614.545 580.421V634.368M614.545 580.421H664.909M614.545 634.368V688.316M614.545 634.368H664.909M614.545 688.316V742.263M614.545 688.316H664.909M614.545 742.263V796.21M614.545 742.263H664.909M614.545 796.21V850.158M614.545 796.21H664.909M614.545 850.158V904.105M614.545 850.158H664.909M614.545 904.105V958.053M614.545 904.105H664.909M614.545 958.053V1012M614.545 958.053H664.909M614.545 1012H664.909M664.909 -13V40.9474M664.909 -13H715.273M664.909 40.9474V94.8947M664.909 40.9474H715.273M664.909 94.8947V148.842M664.909 94.8947H715.273M664.909 148.842V202.789M664.909 148.842H715.273M664.909 202.789V256.737M664.909 202.789H715.273M664.909 256.737V310.684M664.909 256.737H715.273M664.909 310.684V364.632M664.909 310.684H715.273M664.909 364.632V418.579M664.909 364.632H715.273M664.909 418.579V472.526M664.909 418.579H715.273M664.909 472.526V526.474M664.909 472.526H715.273M664.909 526.474V580.421M664.909 526.474H715.273M664.909 580.421V634.368M664.909 580.421H715.273M664.909 634.368V688.316M664.909 634.368H715.273M664.909 688.316V742.263M664.909 688.316H715.273M664.909 742.263V796.21M664.909 742.263H715.273M664.909 796.21V850.158M664.909 796.21H715.273M664.909 850.158V904.105M664.909 850.158H715.273M664.909 904.105V958.053M664.909 904.105H715.273M664.909 958.053V1012M664.909 958.053H715.273M664.909 1012H715.273M715.273 -13V40.9474M715.273 -13H765.636M715.273 40.9474V94.8947M715.273 40.9474H765.636M715.273 94.8947V148.842M715.273 94.8947H765.636M715.273 148.842V202.789M715.273 148.842H765.636M715.273 202.789V256.737M715.273 202.789H765.636M715.273 256.737V310.684M715.273 256.737H765.636M715.273 310.684V364.632M715.273 310.684H765.636M715.273 364.632V418.579M715.273 364.632H765.636M715.273 418.579V472.526M715.273 418.579H765.636M715.273 472.526V526.474M715.273 472.526H765.636M715.273 526.474V580.421M715.273 526.474H765.636M715.273 580.421V634.368M715.273 580.421H765.636M715.273 634.368V688.316M715.273 634.368H765.636M715.273 688.316V742.263M715.273 688.316H765.636M715.273 742.263V796.21M715.273 742.263H765.636M715.273 796.21V850.158M715.273 796.21H765.636M715.273 850.158V904.105M715.273 850.158H765.636M715.273 904.105V958.053M715.273 904.105H765.636M715.273 958.053V1012M715.273 958.053H765.636M715.273 1012H765.636M765.636 -13V40.9474M765.636 -13H816M765.636 40.9474V94.8947M765.636 40.9474H816M765.636 94.8947V148.842M765.636 94.8947H816M765.636 148.842V202.789M765.636 148.842H816M765.636 202.789V256.737M765.636 202.789H816M765.636 256.737V310.684M765.636 256.737H816M765.636 310.684V364.632M765.636 310.684H816M765.636 364.632V418.579M765.636 364.632H816M765.636 418.579V472.526M765.636 418.579H816M765.636 472.526V526.474M765.636 472.526H816M765.636 526.474V580.421M765.636 526.474H816M765.636 580.421V634.368M765.636 580.421H816M765.636 634.368V688.316M765.636 634.368H816M765.636 688.316V742.263M765.636 688.316H816M765.636 742.263V796.21M765.636 742.263H816M765.636 796.21V850.158M765.636 796.21H816M765.636 850.158V904.105M765.636 850.158H816M765.636 904.105V958.053M765.636 904.105H816M765.636 958.053V1012M765.636 958.053H816M765.636 1012H816M816 -13V40.9474M816 -13H866.364M816 40.9474V94.8947M816 40.9474H866.364M816 94.8947V148.842M816 94.8947H866.364M816 148.842V202.789M816 148.842H866.364M816 202.789V256.737M816 202.789H866.364M816 256.737V310.684M816 256.737H866.364M816 310.684V364.632M816 310.684H866.364M816 364.632V418.579M816 364.632H866.364M816 418.579V472.526M816 418.579H866.364M816 472.526V526.474M816 472.526H866.364M816 526.474V580.421M816 526.474H866.364M816 580.421V634.368M816 580.421H866.364M816 634.368V688.316M816 634.368H866.364M816 688.316V742.263M816 688.316H866.364M816 742.263V796.21M816 742.263H866.364M816 796.21V850.158M816 796.21H866.364M816 850.158V904.105M816 850.158H866.364M816 904.105V958.053M816 904.105H866.364M816 958.053V1012M816 958.053H866.364M816 1012H866.364M866.364 -13V40.9474M866.364 -13H916.727M866.364 40.9474V94.8947M866.364 40.9474H916.727M866.364 94.8947V148.842M866.364 94.8947H916.727M866.364 148.842V202.789M866.364 148.842H916.727M866.364 202.789V256.737M866.364 202.789H916.727M866.364 256.737V310.684M866.364 256.737H916.727M866.364 310.684V364.632M866.364 310.684H916.727M866.364 364.632V418.579M866.364 364.632H916.727M866.364 418.579V472.526M866.364 418.579H916.727M866.364 472.526V526.474M866.364 472.526H916.727M866.364 526.474V580.421M866.364 526.474H916.727M866.364 580.421V634.368M866.364 580.421H916.727M866.364 634.368V688.316M866.364 634.368H916.727M866.364 688.316V742.263M866.364 688.316H916.727M866.364 742.263V796.21M866.364 742.263H916.727M866.364 796.21V850.158M866.364 796.21H916.727M866.364 850.158V904.105M866.364 850.158H916.727M866.364 904.105V958.053M866.364 904.105H916.727M866.364 958.053V1012M866.364 958.053H916.727M866.364 1012H916.727M916.727 -13V40.9474M916.727 -13H967.091M916.727 40.9474V94.8947M916.727 40.9474H967.091M916.727 94.8947V148.842M916.727 94.8947H967.091M916.727 148.842V202.789M916.727 148.842H967.091M916.727 202.789V256.737M916.727 202.789H967.091M916.727 256.737V310.684M916.727 256.737H967.091M916.727 310.684V364.632M916.727 310.684H967.091M916.727 364.632V418.579M916.727 364.632H967.091M916.727 418.579V472.526M916.727 418.579H967.091M916.727 472.526V526.474M916.727 472.526H967.091M916.727 526.474V580.421M916.727 526.474H967.091M916.727 580.421V634.368M916.727 580.421H967.091M916.727 634.368V688.316M916.727 634.368H967.091M916.727 688.316V742.263M916.727 688.316H967.091M916.727 742.263V796.21M916.727 742.263H967.091M916.727 796.21V850.158M916.727 796.21H967.091M916.727 850.158V904.105M916.727 850.158H967.091M916.727 904.105V958.053M916.727 904.105H967.091M916.727 958.053V1012M916.727 958.053H967.091M916.727 1012H967.091M967.091 -13V40.9474M967.091 -13H1017.45M967.091 40.9474V94.8947M967.091 40.9474H1017.45M967.091 94.8947V148.842M967.091 94.8947H1017.45M967.091 148.842V202.789M967.091 148.842H1017.45M967.091 202.789V256.737M967.091 202.789H1017.45M967.091 256.737V310.684M967.091 256.737H1017.45M967.091 310.684V364.632M967.091 310.684H1017.45M967.091 364.632V418.579M967.091 364.632H1017.45M967.091 418.579V472.526M967.091 418.579H1017.45M967.091 472.526V526.474M967.091 472.526H1017.45M967.091 526.474V580.421M967.091 526.474H1017.45M967.091 580.421V634.368M967.091 580.421H1017.45M967.091 634.368V688.316M967.091 634.368H1017.45M967.091 688.316V742.263M967.091 688.316H1017.45M967.091 742.263V796.21M967.091 742.263H1017.45M967.091 796.21V850.158M967.091 796.21H1017.45M967.091 850.158V904.105M967.091 850.158H1017.45M967.091 904.105V958.053M967.091 904.105H1017.45M967.091 958.053V1012M967.091 958.053H1017.45M967.091 1012H1017.45M1017.45 -13V40.9474M1017.45 -13H1067.82M1017.45 40.9474V94.8947M1017.45 40.9474H1067.82M1017.45 94.8947V148.842M1017.45 94.8947H1067.82M1017.45 148.842V202.789M1017.45 148.842H1067.82M1017.45 202.789V256.737M1017.45 202.789H1067.82M1017.45 256.737V310.684M1017.45 256.737H1067.82M1017.45 310.684V364.632M1017.45 310.684H1067.82M1017.45 364.632V418.579M1017.45 364.632H1067.82M1017.45 418.579V472.526M1017.45 418.579H1067.82M1017.45 472.526V526.474M1017.45 472.526H1067.82M1017.45 526.474V580.421M1017.45 526.474H1067.82M1017.45 580.421V634.368M1017.45 580.421H1067.82M1017.45 634.368V688.316M1017.45 634.368H1067.82M1017.45 688.316V742.263M1017.45 688.316H1067.82M1017.45 742.263V796.21M1017.45 742.263H1067.82M1017.45 796.21V850.158M1017.45 796.21H1067.82M1017.45 850.158V904.105M1017.45 850.158H1067.82M1017.45 904.105V958.053M1017.45 904.105H1067.82M1017.45 958.053V1012M1017.45 958.053H1067.82M1017.45 1012H1067.82M1067.82 -13V40.9474M1067.82 -13H1118.18M1067.82 40.9474V94.8947M1067.82 40.9474H1118.18M1067.82 94.8947V148.842M1067.82 94.8947H1118.18M1067.82 148.842V202.789M1067.82 148.842H1118.18M1067.82 202.789V256.737M1067.82 202.789H1118.18M1067.82 256.737V310.684M1067.82 256.737H1118.18M1067.82 310.684V364.632M1067.82 310.684H1118.18M1067.82 364.632V418.579M1067.82 364.632H1118.18M1067.82 418.579V472.526M1067.82 418.579H1118.18M1067.82 472.526V526.474M1067.82 472.526H1118.18M1067.82 526.474V580.421M1067.82 526.474H1118.18M1067.82 580.421V634.368M1067.82 580.421H1118.18M1067.82 634.368V688.316M1067.82 634.368H1118.18M1067.82 688.316V742.263M1067.82 688.316H1118.18M1067.82 742.263V796.21M1067.82 742.263H1118.18M1067.82 796.21V850.158M1067.82 796.21H1118.18M1067.82 850.158V904.105M1067.82 850.158H1118.18M1067.82 904.105V958.053M1067.82 904.105H1118.18M1067.82 958.053V1012M1067.82 958.053H1118.18M1067.82 1012H1118.18M1118.18 -13V40.9474M1118.18 -13H1168.55M1118.18 40.9474V94.8947M1118.18 40.9474H1168.55M1118.18 94.8947V148.842M1118.18 94.8947H1168.55M1118.18 148.842V202.789M1118.18 148.842H1168.55M1118.18 202.789V256.737M1118.18 202.789H1168.55M1118.18 256.737V310.684M1118.18 256.737H1168.55M1118.18 310.684V364.632M1118.18 310.684H1168.55M1118.18 364.632V418.579M1118.18 364.632H1168.55M1118.18 418.579V472.526M1118.18 418.579H1168.55M1118.18 472.526V526.474M1118.18 472.526H1168.55M1118.18 526.474V580.421M1118.18 526.474H1168.55M1118.18 580.421V634.368M1118.18 580.421H1168.55M1118.18 634.368V688.316M1118.18 634.368H1168.55M1118.18 688.316V742.263M1118.18 688.316H1168.55M1118.18 742.263V796.21M1118.18 742.263H1168.55M1118.18 796.21V850.158M1118.18 796.21H1168.55M1118.18 850.158V904.105M1118.18 850.158H1168.55M1118.18 904.105V958.053M1118.18 904.105H1168.55M1118.18 958.053V1012M1118.18 958.053H1168.55M1118.18 1012H1168.55M1168.55 -13V40.9474M1168.55 -13H1218.91M1168.55 40.9474V94.8947M1168.55 40.9474H1218.91M1168.55 94.8947V148.842M1168.55 94.8947H1218.91M1168.55 148.842V202.789M1168.55 148.842H1218.91M1168.55 202.789V256.737M1168.55 202.789H1218.91M1168.55 256.737V310.684M1168.55 256.737H1218.91M1168.55 310.684V364.632M1168.55 310.684H1218.91M1168.55 364.632V418.579M1168.55 364.632H1218.91M1168.55 418.579V472.526M1168.55 418.579H1218.91M1168.55 472.526V526.474M1168.55 472.526H1218.91M1168.55 526.474V580.421M1168.55 526.474H1218.91M1168.55 580.421V634.368M1168.55 580.421H1218.91M1168.55 634.368V688.316M1168.55 634.368H1218.91M1168.55 688.316V742.263M1168.55 688.316H1218.91M1168.55 742.263V796.21M1168.55 742.263H1218.91M1168.55 796.21V850.158M1168.55 796.21H1218.91M1168.55 850.158V904.105M1168.55 850.158H1218.91M1168.55 904.105V958.053M1168.55 904.105H1218.91M1168.55 958.053V1012M1168.55 958.053H1218.91M1168.55 1012H1218.91M1218.91 -13V40.9474M1218.91 -13H1269.27M1218.91 40.9474V94.8947M1218.91 40.9474H1269.27M1218.91 94.8947V148.842M1218.91 94.8947H1269.27M1218.91 148.842V202.789M1218.91 148.842H1269.27M1218.91 202.789V256.737M1218.91 202.789H1269.27M1218.91 256.737V310.684M1218.91 256.737H1269.27M1218.91 310.684V364.632M1218.91 310.684H1269.27M1218.91 364.632V418.579M1218.91 364.632H1269.27M1218.91 418.579V472.526M1218.91 418.579H1269.27M1218.91 472.526V526.474M1218.91 472.526H1269.27M1218.91 526.474V580.421M1218.91 526.474H1269.27M1218.91 580.421V634.368M1218.91 580.421H1269.27M1218.91 634.368V688.316M1218.91 634.368H1269.27M1218.91 688.316V742.263M1218.91 688.316H1269.27M1218.91 742.263V796.21M1218.91 742.263H1269.27M1218.91 796.21V850.158M1218.91 796.21H1269.27M1218.91 850.158V904.105M1218.91 850.158H1269.27M1218.91 904.105V958.053M1218.91 904.105H1269.27M1218.91 958.053V1012M1218.91 958.053H1269.27M1218.91 1012H1269.27M1269.27 -13V40.9474M1269.27 -13H1319.64M1269.27 40.9474V94.8947M1269.27 40.9474H1319.64M1269.27 94.8947V148.842M1269.27 94.8947H1319.64M1269.27 148.842V202.789M1269.27 148.842H1319.64M1269.27 202.789V256.737M1269.27 202.789H1319.64M1269.27 256.737V310.684M1269.27 256.737H1319.64M1269.27 310.684V364.632M1269.27 310.684H1319.64M1269.27 364.632V418.579M1269.27 364.632H1319.64M1269.27 418.579V472.526M1269.27 418.579H1319.64M1269.27 472.526V526.474M1269.27 472.526H1319.64M1269.27 526.474V580.421M1269.27 526.474H1319.64M1269.27 580.421V634.368M1269.27 580.421H1319.64M1269.27 634.368V688.316M1269.27 634.368H1319.64M1269.27 688.316V742.263M1269.27 688.316H1319.64M1269.27 742.263V796.21M1269.27 742.263H1319.64M1269.27 796.21V850.158M1269.27 796.21H1319.64M1269.27 850.158V904.105M1269.27 850.158H1319.64M1269.27 904.105V958.053M1269.27 904.105H1319.64M1269.27 958.053V1012M1269.27 958.053H1319.64M1269.27 1012H1319.64M1319.64 -13V40.9474M1319.64 -13H1370M1319.64 40.9474V94.8947M1319.64 40.9474H1370M1319.64 94.8947V148.842M1319.64 94.8947H1370M1319.64 148.842V202.789M1319.64 148.842H1370M1319.64 202.789V256.737M1319.64 202.789H1370M1319.64 256.737V310.684M1319.64 256.737H1370M1319.64 310.684V364.632M1319.64 310.684H1370M1319.64 364.632V418.579M1319.64 364.632H1370M1319.64 418.579V472.526M1319.64 418.579H1370M1319.64 472.526V526.474M1319.64 472.526H1370M1319.64 526.474V580.421M1319.64 526.474H1370M1319.64 580.421V634.368M1319.64 580.421H1370M1319.64 634.368V688.316M1319.64 634.368H1370M1319.64 688.316V742.263M1319.64 688.316H1370M1319.64 742.263V796.21M1319.64 742.263H1370M1319.64 796.21V850.158M1319.64 796.21H1370M1319.64 850.158V904.105M1319.64 850.158H1370M1319.64 904.105V958.053M1319.64 904.105H1370M1319.64 958.053V1012M1319.64 958.053H1370M1319.64 1012H1370M1370 -13V40.9474M1370 -13H1420.36M1370 40.9474V94.8947M1370 40.9474H1420.36M1370 94.8947V148.842M1370 94.8947H1420.36M1370 148.842V202.789M1370 148.842H1420.36M1370 202.789V256.737M1370 202.789H1420.36M1370 256.737V310.684M1370 256.737H1420.36M1370 310.684V364.632M1370 310.684H1420.36M1370 364.632V418.579M1370 364.632H1420.36M1370 418.579V472.526M1370 418.579H1420.36M1370 472.526V526.474M1370 472.526H1420.36M1370 526.474V580.421M1370 526.474H1420.36M1370 580.421V634.368M1370 580.421H1420.36M1370 634.368V688.316M1370 634.368H1420.36M1370 688.316V742.263M1370 688.316H1420.36M1370 742.263V796.21M1370 742.263H1420.36M1370 796.21V850.158M1370 796.21H1420.36M1370 850.158V904.105M1370 850.158H1420.36M1370 904.105V958.053M1370 904.105H1420.36M1370 958.053V1012M1370 958.053H1420.36M1370 1012H1420.36M1420.36 -13V40.9474M1420.36 -13H1470.73M1420.36 40.9474V94.8947M1420.36 40.9474H1470.73M1420.36 94.8947V148.842M1420.36 94.8947H1470.73M1420.36 148.842V202.789M1420.36 148.842H1470.73M1420.36 202.789V256.737M1420.36 202.789H1470.73M1420.36 256.737V310.684M1420.36 256.737H1470.73M1420.36 310.684V364.632M1420.36 310.684H1470.73M1420.36 364.632V418.579M1420.36 364.632H1470.73M1420.36 418.579V472.526M1420.36 418.579H1470.73M1420.36 472.526V526.474M1420.36 472.526H1470.73M1420.36 526.474V580.421M1420.36 526.474H1470.73M1420.36 580.421V634.368M1420.36 580.421H1470.73M1420.36 634.368V688.316M1420.36 634.368H1470.73M1420.36 688.316V742.263M1420.36 688.316H1470.73M1420.36 742.263V796.21M1420.36 742.263H1470.73M1420.36 796.21V850.158M1420.36 796.21H1470.73M1420.36 850.158V904.105M1420.36 850.158H1470.73M1420.36 904.105V958.053M1420.36 904.105H1470.73M1420.36 958.053V1012M1420.36 958.053H1470.73M1420.36 1012H1470.73M1470.73 -13V40.9474M1470.73 -13H1521.09M1470.73 40.9474V94.8947M1470.73 40.9474H1521.09M1470.73 94.8947V148.842M1470.73 94.8947H1521.09M1470.73 148.842V202.789M1470.73 148.842H1521.09M1470.73 202.789V256.737M1470.73 202.789H1521.09M1470.73 256.737V310.684M1470.73 256.737H1521.09M1470.73 310.684V364.632M1470.73 310.684H1521.09M1470.73 364.632V418.579M1470.73 364.632H1521.09M1470.73 418.579V472.526M1470.73 418.579H1521.09M1470.73 472.526V526.474M1470.73 472.526H1521.09M1470.73 526.474V580.421M1470.73 526.474H1521.09M1470.73 580.421V634.368M1470.73 580.421H1521.09M1470.73 634.368V688.316M1470.73 634.368H1521.09M1470.73 688.316V742.263M1470.73 688.316H1521.09M1470.73 742.263V796.21M1470.73 742.263H1521.09M1470.73 796.21V850.158M1470.73 796.21H1521.09M1470.73 850.158V904.105M1470.73 850.158H1521.09M1470.73 904.105V958.053M1470.73 904.105H1521.09M1470.73 958.053V1012M1470.73 958.053H1521.09M1470.73 1012H1521.09M1521.09 -13V40.9474M1521.09 -13H1571.45M1521.09 40.9474V94.8947M1521.09 40.9474H1571.45M1521.09 94.8947V148.842M1521.09 94.8947H1571.45M1521.09 148.842V202.789M1521.09 148.842H1571.45M1521.09 202.789V256.737M1521.09 202.789H1571.45M1521.09 256.737V310.684M1521.09 256.737H1571.45M1521.09 310.684V364.632M1521.09 310.684H1571.45M1521.09 364.632V418.579M1521.09 364.632H1571.45M1521.09 418.579V472.526M1521.09 418.579H1571.45M1521.09 472.526V526.474M1521.09 472.526H1571.45M1521.09 526.474V580.421M1521.09 526.474H1571.45M1521.09 580.421V634.368M1521.09 580.421H1571.45M1521.09 634.368V688.316M1521.09 634.368H1571.45M1521.09 688.316V742.263M1521.09 688.316H1571.45M1521.09 742.263V796.21M1521.09 742.263H1571.45M1521.09 796.21V850.158M1521.09 796.21H1571.45M1521.09 850.158V904.105M1521.09 850.158H1571.45M1521.09 904.105V958.053M1521.09 904.105H1571.45M1521.09 958.053V1012M1521.09 958.053H1571.45M1521.09 1012H1571.45M1571.45 -13V40.9474M1571.45 -13H1621.82M1571.45 40.9474V94.8947M1571.45 40.9474H1621.82M1571.45 94.8947V148.842M1571.45 94.8947H1621.82M1571.45 148.842V202.789M1571.45 148.842H1621.82M1571.45 202.789V256.737M1571.45 202.789H1621.82M1571.45 256.737V310.684M1571.45 256.737H1621.82M1571.45 310.684V364.632M1571.45 310.684H1621.82M1571.45 364.632V418.579M1571.45 364.632H1621.82M1571.45 418.579V472.526M1571.45 418.579H1621.82M1571.45 472.526V526.474M1571.45 472.526H1621.82M1571.45 526.474V580.421M1571.45 526.474H1621.82M1571.45 580.421V634.368M1571.45 580.421H1621.82M1571.45 634.368V688.316M1571.45 634.368H1621.82M1571.45 688.316V742.263M1571.45 688.316H1621.82M1571.45 742.263V796.21M1571.45 742.263H1621.82M1571.45 796.21V850.158M1571.45 796.21H1621.82M1571.45 850.158V904.105M1571.45 850.158H1621.82M1571.45 904.105V958.053M1571.45 904.105H1621.82M1571.45 958.053V1012M1571.45 958.053H1621.82M1571.45 1012H1621.82M1621.82 -13V40.9474M1621.82 -13H1672.18M1621.82 40.9474V94.8947M1621.82 40.9474H1672.18M1621.82 94.8947V148.842M1621.82 94.8947H1672.18M1621.82 148.842V202.789M1621.82 148.842H1672.18M1621.82 202.789V256.737M1621.82 202.789H1672.18M1621.82 256.737V310.684M1621.82 256.737H1672.18M1621.82 310.684V364.632M1621.82 310.684H1672.18M1621.82 364.632V418.579M1621.82 364.632H1672.18M1621.82 418.579V472.526M1621.82 418.579H1672.18M1621.82 472.526V526.474M1621.82 472.526H1672.18M1621.82 526.474V580.421M1621.82 526.474H1672.18M1621.82 580.421V634.368M1621.82 580.421H1672.18M1621.82 634.368V688.316M1621.82 634.368H1672.18M1621.82 688.316V742.263M1621.82 688.316H1672.18M1621.82 742.263V796.21M1621.82 742.263H1672.18M1621.82 796.21V850.158M1621.82 796.21H1672.18M1621.82 850.158V904.105M1621.82 850.158H1672.18M1621.82 904.105V958.053M1621.82 904.105H1672.18M1621.82 958.053V1012M1621.82 958.053H1672.18M1621.82 1012H1672.18M1672.18 -13V40.9474M1672.18 -13H1722.55M1672.18 40.9474V94.8947M1672.18 40.9474H1722.55M1672.18 94.8947V148.842M1672.18 94.8947H1722.55M1672.18 148.842V202.789M1672.18 148.842H1722.55M1672.18 202.789V256.737M1672.18 202.789H1722.55M1672.18 256.737V310.684M1672.18 256.737H1722.55M1672.18 310.684V364.632M1672.18 310.684H1722.55M1672.18 364.632V418.579M1672.18 364.632H1722.55M1672.18 418.579V472.526M1672.18 418.579H1722.55M1672.18 472.526V526.474M1672.18 472.526H1722.55M1672.18 526.474V580.421M1672.18 526.474H1722.55M1672.18 580.421V634.368M1672.18 580.421H1722.55M1672.18 634.368V688.316M1672.18 634.368H1722.55M1672.18 688.316V742.263M1672.18 688.316H1722.55M1672.18 742.263V796.21M1672.18 742.263H1722.55M1672.18 796.21V850.158M1672.18 796.21H1722.55M1672.18 850.158V904.105M1672.18 850.158H1722.55M1672.18 904.105V958.053M1672.18 904.105H1722.55M1672.18 958.053V1012M1672.18 958.053H1722.55M1672.18 1012H1722.55M1722.55 -13V40.9474M1722.55 -13H1772.91M1722.55 40.9474V94.8947M1722.55 40.9474H1772.91M1722.55 94.8947V148.842M1722.55 94.8947H1772.91M1722.55 148.842V202.789M1722.55 148.842H1772.91M1722.55 202.789V256.737M1722.55 202.789H1772.91M1722.55 256.737V310.684M1722.55 256.737H1772.91M1722.55 310.684V364.632M1722.55 310.684H1772.91M1722.55 364.632V418.579M1722.55 364.632H1772.91M1722.55 418.579V472.526M1722.55 418.579H1772.91M1722.55 472.526V526.474M1722.55 472.526H1772.91M1722.55 526.474V580.421M1722.55 526.474H1772.91M1722.55 580.421V634.368M1722.55 580.421H1772.91M1722.55 634.368V688.316M1722.55 634.368H1772.91M1722.55 688.316V742.263M1722.55 688.316H1772.91M1722.55 742.263V796.21M1722.55 742.263H1772.91M1722.55 796.21V850.158M1722.55 796.21H1772.91M1722.55 850.158V904.105M1722.55 850.158H1772.91M1722.55 904.105V958.053M1722.55 904.105H1772.91M1722.55 958.053V1012M1722.55 958.053H1772.91M1722.55 1012H1772.91M1772.91 -13V40.9474M1772.91 -13H1823.27M1772.91 40.9474V94.8947M1772.91 40.9474H1823.27M1772.91 94.8947V148.842M1772.91 94.8947H1823.27M1772.91 148.842V202.789M1772.91 148.842H1823.27M1772.91 202.789V256.737M1772.91 202.789H1823.27M1772.91 256.737V310.684M1772.91 256.737H1823.27M1772.91 310.684V364.632M1772.91 310.684H1823.27M1772.91 364.632V418.579M1772.91 364.632H1823.27M1772.91 418.579V472.526M1772.91 418.579H1823.27M1772.91 472.526V526.474M1772.91 472.526H1823.27M1772.91 526.474V580.421M1772.91 526.474H1823.27M1772.91 580.421V634.368M1772.91 580.421H1823.27M1772.91 634.368V688.316M1772.91 634.368H1823.27M1772.91 688.316V742.263M1772.91 688.316H1823.27M1772.91 742.263V796.21M1772.91 742.263H1823.27M1772.91 796.21V850.158M1772.91 796.21H1823.27M1772.91 850.158V904.105M1772.91 850.158H1823.27M1772.91 904.105V958.053M1772.91 904.105H1823.27M1772.91 958.053V1012M1772.91 958.053H1823.27M1772.91 1012H1823.27M1823.27 -13V40.9474M1823.27 -13H1873.64M1823.27 40.9474V94.8947M1823.27 40.9474H1873.64M1823.27 94.8947V148.842M1823.27 94.8947H1873.64M1823.27 148.842V202.789M1823.27 148.842H1873.64M1823.27 202.789V256.737M1823.27 202.789H1873.64M1823.27 256.737V310.684M1823.27 256.737H1873.64M1823.27 310.684V364.632M1823.27 310.684H1873.64M1823.27 364.632V418.579M1823.27 364.632H1873.64M1823.27 418.579V472.526M1823.27 418.579H1873.64M1823.27 472.526V526.474M1823.27 472.526H1873.64M1823.27 526.474V580.421M1823.27 526.474H1873.64M1823.27 580.421V634.368M1823.27 580.421H1873.64M1823.27 634.368V688.316M1823.27 634.368H1873.64M1823.27 688.316V742.263M1823.27 688.316H1873.64M1823.27 742.263V796.21M1823.27 742.263H1873.64M1823.27 796.21V850.158M1823.27 796.21H1873.64M1823.27 850.158V904.105M1823.27 850.158H1873.64M1823.27 904.105V958.053M1823.27 904.105H1873.64M1823.27 958.053V1012M1823.27 958.053H1873.64M1823.27 1012H1873.64M1873.64 -13V40.9474M1873.64 -13H1924V40.9474M1873.64 40.9474V94.8947M1873.64 40.9474H1924M1873.64 94.8947V148.842M1873.64 94.8947H1924M1873.64 148.842V202.789M1873.64 148.842H1924M1873.64 202.789V256.737M1873.64 202.789H1924M1873.64 256.737V310.684M1873.64 256.737H1924M1873.64 310.684V364.632M1873.64 310.684H1924M1873.64 364.632V418.579M1873.64 364.632H1924M1873.64 418.579V472.526M1873.64 418.579H1924M1873.64 472.526V526.474M1873.64 472.526H1924M1873.64 526.474V580.421M1873.64 526.474H1924M1873.64 580.421V634.368M1873.64 580.421H1924M1873.64 634.368V688.316M1873.64 634.368H1924M1873.64 688.316V742.263M1873.64 688.316H1924M1873.64 742.263V796.21M1873.64 742.263H1924M1873.64 796.21V850.158M1873.64 796.21H1924M1873.64 850.158V904.105M1873.64 850.158H1924M1873.64 904.105V958.053M1873.64 904.105H1924M1873.64 958.053V1012M1873.64 958.053H1924M1873.64 1012H1924V958.053M1924 40.9474V94.8947M1924 94.8947V148.842M1924 148.842V202.789M1924 202.789V256.737M1924 256.737V310.684M1924 310.684V364.632M1924 364.632V418.579M1924 418.579V472.526M1924 472.526V526.474M1924 526.474V580.421M1924 580.421V634.368M1924 634.368V688.316M1924 688.316V742.263M1924 742.263V796.21M1924 796.21V850.158M1924 850.158V904.105M1924 904.105V958.053" stroke="url(#paint0_radial_0_1249)" stroke-width="1.74474"/>
</g>
<defs>
<radialGradient id="paint0_radial_0_1249" cx="0" cy="0" r="1" gradientUnits="userSpaceOnUse" gradientTransform="translate(816 499.5) rotate(90) scale(512.5 894.729)">
<stop stop-color="#18181B"/>
<stop offset="1" stop-color="#18181B" stop-opacity="0.2"/>
</radialGradient>
</defs>
</svg>
